<svg width="40" height="40" viewBox="0 0 40 40" fill="none" xmlns="http://www.w3.org/2000/svg">
<rect width="40" height="40" rx="12" fill="url(#paint0_linear_17705_73425)"/>
<g clip-path="url(#clip0_17705_73425)">
<path d="M26.8819 13.6323C25.9284 12.5999 24.7548 11.7955 23.448 11.2788C22.1412 10.762 20.7347 10.5462 19.3331 10.6473C16.9436 10.849 14.7184 11.9461 13.1036 13.719C11.4887 15.4918 10.6034 17.8093 10.625 20.2073V28.7492C10.625 28.8728 10.6616 28.9936 10.7302 29.0964C10.7989 29.1992 10.8964 29.2793 11.0106 29.3267C11.0864 29.3583 11.1678 29.3744 11.25 29.3742C11.4157 29.3741 11.5747 29.3083 11.6919 29.1911L13.1694 27.7142C13.3496 27.5381 13.5869 27.4322 13.8384 27.4157C14.0898 27.3992 14.3389 27.4731 14.5406 27.6242C16.4286 28.9808 18.7533 29.5876 21.0634 29.3267C23.3736 29.0658 25.5044 27.9559 27.0422 26.2124C28.5801 24.4688 29.4152 22.2161 29.3856 19.8914C29.356 17.5668 28.4637 15.3361 26.8819 13.6323ZM24.6875 19.8742L23.3456 20.9479C22.8741 21.3242 22.2888 21.5291 21.6856 21.5292C21.55 21.5293 21.4146 21.5189 21.2806 21.4979C20.917 21.4412 20.5692 21.3096 20.259 21.1116C19.9489 20.9135 19.6832 20.6533 19.4787 20.3473C19.3707 20.1854 19.2301 20.0477 19.066 19.9429C18.902 19.8381 18.7179 19.7686 18.5255 19.7387C18.3331 19.7087 18.1366 19.7191 17.9485 19.7691C17.7603 19.8191 17.5846 19.9077 17.4325 20.0292L16.0919 21.1017C16.0277 21.1529 15.954 21.1909 15.8752 21.2136C15.7963 21.2363 15.7137 21.2433 15.6321 21.2341C15.4674 21.2155 15.3168 21.1322 15.2134 21.0026C15.1101 20.873 15.0624 20.7076 15.081 20.5429C15.0996 20.3781 15.1829 20.2275 15.3125 20.1242L16.6544 19.0511C16.9416 18.8211 17.2736 18.6533 17.6292 18.5585C17.9848 18.4637 18.3562 18.4439 18.7198 18.5003C19.0835 18.5567 19.4314 18.6882 19.7415 18.8863C20.0516 19.0844 20.3172 19.3448 20.5212 19.6511C20.6292 19.8131 20.7697 19.951 20.9337 20.0559C21.0978 20.1608 21.2819 20.2304 21.4744 20.2603C21.6668 20.2902 21.8634 20.2798 22.0515 20.2297C22.2397 20.1796 22.4154 20.0908 22.5675 19.9692L23.9094 18.8961C23.9734 18.8436 24.0473 18.8045 24.1267 18.7808C24.206 18.7572 24.2893 18.7495 24.3716 18.7583C24.4539 18.7671 24.5337 18.7922 24.6062 18.8321C24.6788 18.872 24.7427 18.9259 24.7942 18.9907C24.8458 19.0555 24.8839 19.1299 24.9065 19.2095C24.929 19.2892 24.9355 19.3726 24.9256 19.4548C24.9157 19.537 24.8895 19.6164 24.8486 19.6884C24.8078 19.7604 24.753 19.8235 24.6875 19.8742Z" fill="white"/>
</g>
<defs>
<linearGradient id="paint0_linear_17705_73425" x1="3.91209e-07" y1="1.76871" x2="47.7028" y2="22.1377" gradientUnits="userSpaceOnUse">
<stop stop-color="#3ED0DD"/>
<stop offset="1" stop-color="#33ADB8"/>
</linearGradient>
<clipPath id="clip0_17705_73425">
<rect width="20" height="20" fill="white" transform="translate(10 10)"/>
</clipPath>
</defs>
</svg>
